<?xml version="1.0" encoding="UTF-8"?> <svg xmlns="http://www.w3.org/2000/svg" id="Calque_1" data-name="Calque 1" width="287.85" height="80.47" viewBox="0 0 287.85 80.47"><defs><style> .cls-1 { fill: #f7f5f2; stroke-width: 0px; } </style></defs><path class="cls-1" d="M287.79,51.92c-.06-2.27-.79-4.2-2.2-5.8,1.43-1.6,2.16-3.53,2.22-5.8l.04-26.13-5.8-.02-.04,26.13c-.02.83-.31,1.52-.87,2.08-.56.56-1.23.83-2.04.83l-2.91-.02.06-29.02-5.82-.02-.08,52.25,5.8.02.02-17.42h2.91c1.66.06,2.85,1.25,2.91,2.91l-.04,14.51,5.8.02.04-14.53ZM254.72,66.43c2.1,0,3.93-.67,5.51-1.97l.02-.02c.73-.6,1.33-1.29,1.85-2.1.35-.58.62-1.14.83-1.7.06-.17.15-.48.27-.94l.08-.42c.1-.6.15-1.12.15-1.56v-8.71h-5.82v8.71c0,.81-.29,1.5-.85,2.06-.56.56-1.23.85-2.04.85-.71,0-1.33-.23-1.85-.67t-.02-.02c-.1-.06-.25-.21-.39-.39-.23-.25-.39-.58-.52-.98-.08-.27-.12-.56-.12-.85V22.88c0-.81.29-1.5.85-2.06.56-.56,1.25-.85,2.06-.85s1.48.29,2.04.85c.56.56.85,1.25.85,2.06v20.33h5.82v-20.33c0-4.82-3.95-8.71-8.71-8.71-.94,0-1.89.17-2.85.48-.1.02-.21.06-.31.12-.04,0-.17.04-.39.15l-.69.35c-.06.04-.12.08-.19.1-.54.33-1.08.75-1.62,1.23-.54.54-.98,1.08-1.33,1.64-.89,1.39-1.33,2.93-1.33,4.63v34.83c-.06,4.76,3.95,8.77,8.71,8.71M227.43,43.21v-20.37c.04-.81.33-1.5.89-2.04.56-.56,1.23-.83,2.02-.83s1.5.29,2.06.85c.56.56.85,1.25.85,2.06v20.33h-5.82ZM239.05,22.88c.06-4.76-3.95-8.77-8.71-8.71-1.31,0-2.54.27-3.66.81l-.79.39c-.67.44-1.25.89-1.75,1.39-.02,0,.08-.08-.33.35-1.45,1.58-2.18,3.49-2.18,5.76v43.54h5.8v-17.42h5.82v17.42h5.8V22.88ZM214.67,60.63h-9.04V14.18h-5.8v52.25h14.84v-5.8ZM181.25,60.63v-11.62h2.91c.81,0,1.5.29,2.06.85.56.56.85,1.25.85,2.06v5.8c0,.81-.29,1.5-.85,2.06-.56.56-1.25.85-2.06.85h-2.91ZM181.25,43.21v-23.24h2.91c.81,0,1.5.29,2.06.85.56.56.85,1.25.85,2.06v17.42c0,.81-.29,1.5-.85,2.06s-1.25.85-2.06.85h-2.91ZM184.16,66.43c2.1,0,3.93-.67,5.51-1.97h.02l.69-.64c.06-.04.15-.12.21-.23.17-.1.15-.1.17-.17.02-.02.21-.25.54-.69.27-.42.52-.81.71-1.21v-.02h.02c.15-.29.31-.75.52-1.37.04-.15.08-.29.1-.44l.02-.04c.12-.56.19-1.06.19-1.48.02-.15.02-2.24.02-6.26,0-2.22-.73-4.18-2.2-5.82,1.48-1.64,2.2-3.57,2.2-5.8v-17.42c.06-4.76-3.95-8.77-8.71-8.71h-8.71v52.25h8.71ZM168.49,60.63h-9.04V14.18h-5.8v52.25h14.84v-5.8ZM137.96,66.43c2.1,0,3.93-.64,5.51-1.95v-.02h.02c.46-.39.79-.71,1.02-.98l.29-.37c.15-.19.33-.46.56-.77.08-.12.23-.39.44-.81l.02-.02c.31-.67.52-1.27.62-1.81.06-.06.15-.67.21-1.23l.02-.29V14.18h-5.8v43.54c0,.81-.29,1.5-.85,2.06-.56.56-1.25.85-2.06.85-.23,0-.44-.02-.62-.08-.39-.1-.75-.25-1.02-.44-.48-.33-.83-.79-1.06-1.35-.12-.25-.19-.6-.19-1.04V14.18h-5.82v43.54c0,.81-.29,1.5-.85,2.06-.56.56-1.23.85-2.04.85-.25,0-.46-.02-.62-.08-.39-.08-.75-.23-1.04-.44-.48-.33-.83-.79-1.06-1.35-.12-.25-.19-.6-.19-1.04V14.18h-5.8v43.54c-.06,4.76,3.95,8.77,8.71,8.71,2.22,0,4.16-.73,5.8-2.2,1.64,1.48,3.57,2.2,5.8,2.2M101.96,60.63c-.62,0-1.16-.17-1.62-.52h-.02c-.25-.19-.39-.31-.42-.35-.56-.56-.83-1.23-.83-2.04V22.88c0-.81.27-1.5.83-2.06.56-.56,1.25-.85,2.06-.85s1.5.29,2.06.85c.56.56.85,1.25.85,2.06v34.83c0,.81-.29,1.5-.85,2.06-.56.56-1.25.85-2.06.85M101.96,66.43c2.1,0,3.95-.67,5.55-2v-.02h.02c.44-.33.85-.77,1.29-1.33.56-.67,1.02-1.5,1.37-2.47v-.02c.06-.15.1-.29.15-.44l.12-.48c.1-.54.15-.83.15-.85.02-.04.02-.1.02-.17.02-.25.04-.56.04-.94V22.88c0-1.89-.54-3.57-1.6-5.05-1.06-1.48-2.47-2.54-4.2-3.16-.91-.33-1.89-.5-2.91-.5s-2.2.23-3.43.71c-.27.1-.52.23-.77.37-.52.27-.87.52-1.08.73-.81.6-1.52,1.35-2.1,2.27-.89,1.39-1.33,2.93-1.33,4.63v34.83c0,1.89.54,3.6,1.6,5.07,1.08,1.48,2.49,2.51,4.22,3.14.91.33,1.87.5,2.89.5"></path><path class="cls-1" d="M40.23,0C18.01,0,0,18.01,0,40.23s18.01,40.24,40.23,40.24,40.24-18.01,40.24-40.24S62.46,0,40.23,0ZM40.23,77.49c-17.65,0-32.43-12.27-36.28-28.75,5.48-1.33,9.08-4.99,12.4-9.04.24-.3.54-.63.84-1.01,0,.3-1.48,19.23,20.7,27.71,4.96,1.9,10.11,2.99,15.38,3.53,2.84.29,5.69.44,8.56.67-6.09,4.34-13.55,6.9-21.6,6.9ZM66.54,66.59c-.12.12-.75.73-.75.73,0,0-9.7.46-18.49-1.34-16.88-3.47-22.7-12.04-24.8-16.31-.02-.05-.05-.1-.07-.14-.28-.58-.5-1.08-.65-1.46-.81-1.95-1.22-3.89-1.34-4.56-.01-.07-.03-.15-.04-.22,0,0,0-.01,0-.02-.02-.13-.04-.25-.06-.38-.71-4.83.4-8.75,1.65-11.48.13-.29.48-.98.53-1.08.24-.46.48-.87.7-1.23.05-.08.34-.54.38-.6,3.74-5.65,10.15-9.38,17.43-9.38.63,0,1.26.03,1.87.08-.44.07-9,1.47-12.05,11.82-1.97,6.66-.18,12.45,4.31,17.5,3.38,3.8,7.72,6.2,12.46,7.89,1.41.5,2.83.93,4.26,1.29,0,0,.07.02.19.04.97.21,5.55,1.17,9.41,1.41,3.69.23,7.35.03,11.19-.57-1.67,2.95-3.74,5.64-6.12,8.01ZM57.97,27.82c-3.18.1-5.09,1.5-5.76,3.95-.64,2.31.32,4.76,2.34,6.01,2.22,1.37,4.61,1.02,7.05-1.11.01,0,.02-.02.03-.02.08.62.18,1.19.21,1.75.08,1.27.07,2.54-.06,3.79-.01.11-.16,1.39-.36,2.16-.01.06-.08.28-.11.35,0,0-.11.01-.23.02-4,.32-7.92,0-11.57-1.82-3.66-1.82-5.33-4.92-5.47-8.92-.06-1.66.2-3.25,1.04-4.71,1.07-1.85,2.52-3.34,4.4-4.19,2.63-1.19,4.52-1.43,4.52-1.43,0,0,1.47,1.27,1.47,1.27.02.02.63.61.92.94.92,1.02,1.58,1.96,1.58,1.96ZM59.81,33.25c-.01,1.33-1.1,2.38-2.44,2.37-1.34-.01-2.38-1.09-2.36-2.44.01-1.35,1.07-2.37,2.43-2.37,1.33,0,2.39,1.09,2.37,2.43ZM73.88,55.33c-4.41.9-8.86,1.16-13.35.77-1.81-.16-3.6-.39-5.37-.73-.02,0-.04,0-.06-.01-.03,0-.06-.01-.09-.02-2.56-.49-5.07-1.19-7.52-2.16-3.79-1.49-7.27-3.5-10.06-6.53-2.97-3.24-4.8-7.03-4.38-11.48,1.5-15.97,15.46-14.64,17.95-13.52.02.01.18.09.22.11-2.82,1.04-9.92,3.44-10.14,11.34-.1,3.65.81,6.98,3.36,9.71,1.96,2.1,4.43,3.38,7.18,4.05,1.79.44,3.64.63,5.47.89.19.02.54.09.54.09,0,0,.1.25.16.43.31.87.62,1.74.93,2.61.01.04.03.08.04.12t0,0c.34.95.69,1.9,1.04,2.85.06.15.13.3.27.64.78-1.29,1.55-2.42,2.17-3.62,4.83-9.38,2.9-20.98-4.81-28.2-4.08-3.81-8.92-6.19-14.58-6.46-10.3-.5-17.96,3.85-23.04,12.79-2.48,4.37-5.17,8.58-8.76,12.13-1.7,1.69-3.56,3.17-5.82,4.07-.57.23-1.16.37-1.84.59-.28-1.82-.42-3.68-.42-5.58C2.98,19.66,19.66,2.98,40.23,2.98s37.26,16.68,37.26,37.25c0,5.3-1.11,10.35-3.11,14.92-.11.08-.37.16-.5.18Z"></path><path class="cls-1" d="M109.27,57.73s.06-.09.1-.14c-.03.05-.07.1-.1.14Z"></path></svg> 