<?xml version="1.0" encoding="UTF-8"?>
<svg id="Calque_2" data-name="Calque 2" xmlns="http://www.w3.org/2000/svg" viewBox="0 0 505.44 507.64">
  <g id="Calque_1-2" data-name="Calque 1">
    <path d="M292.93,232.5c-1.56-1.01-4.71-6.16-7.14-8.28-27.18-23.64-74.17-9.24-79.07,24.88-47.03,7.76-47.91,67.28-94.8,73.54-47.26,6.33-73.79-48.02-40.79-76.9,10.57-9.26,23.75-11.45,35.07-18.47,11.97-7.44,26.47-28.51,17.42-41.29-7.28-10.29-22.08,7.24-30.48,10.72-39.37,16.37-66.48,16.86-85.1,58.84-47.12,106.32,125.64,179.03,184.67,69.97,7.41-13.7,10.54-30.57,24.18-40.76l1.56-.45c28.47,27.44,82.81,8.1,81.75-29.95.14-3.73-.24-9.7-3.5-16.07-1.16-2.27-2.49-4.19-3.77-5.78ZM240.54,268.39h0s-.03-.02-.04-.03c-.03-.02-.06-.04-.09-.05h.01c-1.8-1.48-3.23-3.05-4.31-4.67-.01-.02-.02-.04-.04-.06-.34-.52-.66-1.04-.93-1.57-.02-.05-.04-.09-.06-.14-.26-.5-.49-1.01-.68-1.52-.04-.09-.06-.19-.09-.28-.17-.46-.33-.93-.45-1.39-.04-.15-.06-.3-.09-.45-.09-.41-.19-.82-.24-1.23-.03-.23-.04-.46-.06-.69-.03-.33-.07-.66-.08-.98,0-.33.01-.66.02-.98,0-.23,0-.46.02-.68.04-.48.11-.95.19-1.42.01-.07.02-.15.03-.22,1.32-7.12,7.42-13.37,15.1-15.25.05-.01.11-.02.16-.03.53-.13,1.07-.24,1.62-.32.19-.03.38-.04.58-.06.42-.05.83-.11,1.26-.13.29-.02.58,0,.87-.01.33,0,.66-.02,1,0,.37.01.74.06,1.11.09.26.02.52.03.79.07.42.06.85.15,1.27.23.22.04.43.07.65.12.48.11.96.26,1.43.41.17.05.33.09.5.14.51.17,1.02.38,1.53.6.14.06.27.1.41.16.53.24,1.06.52,1.59.81.12.06.23.11.35.18.54.31,1.09.66,1.63,1.02.09.06.19.11.28.18h0s.02.01.03.02c.03.02.06.04.09.06h0s0,0,0,0h-.01c19.24,15.71-4.93,42.27-25.34,28.1Z"/>
    <path d="M212.5,278.2c1.56,1.05,4.71,6.4,7.14,8.6,27.18,24.53,74.17,9.59,79.07-25.82,47.03-8.05,47.91-69.81,94.8-76.31,47.26-6.57,73.79,49.82,40.79,79.79-10.57,9.61-23.75,11.88-35.07,19.17-11.97,7.72-26.47,29.59-17.42,42.84,7.28,10.67,22.08-7.51,30.48-11.12,39.37-16.99,66.48-17.49,85.1-61.06,47.12-110.32-125.64-185.77-184.67-72.6-7.41,14.21-10.54,31.72-24.18,42.29l-1.56.46c-28.47-28.48-82.81-8.4-81.75,31.08-.14,3.87.24,10.06,3.5,16.67,1.16,2.36,2.49,4.35,3.77,5.99ZM264.9,240.96h0s.03.02.04.03c.03.02.06.04.09.06h-.01c1.8,1.54,3.23,3.16,4.31,4.84.01.02.02.04.04.06.34.54.66,1.08.93,1.63.02.05.04.1.06.14.26.52.49,1.05.68,1.58.04.1.06.19.09.29.17.48.33.96.45,1.45.04.15.06.31.09.46.09.43.19.85.24,1.28.03.24.04.48.06.72.03.34.07.68.08,1.02,0,.34-.01.68-.02,1.02,0,.24,0,.47-.02.71-.04.49-.11.98-.19,1.47-.01.08-.02.16-.03.23-1.32,7.39-7.42,13.88-15.1,15.83-.05.01-.11.02-.16.03-.53.13-1.07.25-1.62.33-.19.03-.38.04-.58.06-.42.05-.83.11-1.26.13-.29.02-.58,0-.87.01-.33,0-.66.02-1,0-.37-.01-.74-.06-1.11-.1-.26-.03-.52-.04-.79-.07-.42-.06-.85-.15-1.27-.24-.22-.05-.43-.07-.65-.13-.48-.12-.96-.27-1.43-.42-.17-.05-.33-.09-.5-.15-.51-.18-1.02-.4-1.53-.62-.14-.06-.27-.11-.41-.17-.53-.25-1.06-.54-1.59-.84-.12-.07-.23-.12-.35-.19-.54-.32-1.09-.68-1.63-1.06-.09-.06-.19-.11-.28-.18h0s-.02-.02-.03-.03c-.03-.02-.06-.04-.09-.06h0s0,0,0,0h.01c-19.24-16.3,4.93-43.86,25.34-29.15Z"/>
    <path d="M231.03,214.11c-1.03,1.55-6.24,4.65-8.39,7.06-24.01,26.94-10.04,74.07,24.16,79.32,7.3,47.1,67.04,48.61,72.84,95.55,5.87,47.32-48.96,73.29-77.61,39.99-9.19-10.67-11.25-23.87-18.18-35.26-7.35-12.04-28.35-26.77-41.27-17.84-10.4,7.17,7.04,22.15,10.45,30.59,16.03,39.53,16.24,66.66,58.19,85.7,106.24,48.22,181.01-123.79,72.13-183.94-13.67-7.55-30.58-10.85-40.67-24.6l-.43-1.56c27.84-28.19,8.98-82.73-29.22-82.06-3.75-.18-9.74.13-16.16,3.33-2.29,1.14-4.23,2.45-5.84,3.71ZM266.52,266.87h0s-.03.03-.04.05c-.02.03-.04.06-.06.09h-.01c-1.5,1.78-3.08,3.19-4.72,4.25-.02.01-.04.02-.06.04-.53.34-1.05.65-1.59.91-.05.02-.09.04-.14.06-.51.25-1.02.48-1.53.67-.09.03-.19.06-.28.09-.47.16-.93.32-1.4.43-.15.04-.3.05-.45.09-.41.09-.83.18-1.24.23-.23.03-.46.03-.7.05-.33.03-.66.07-.99.07-.33,0-.66-.02-.99-.03-.23-.01-.46,0-.69-.03-.48-.04-.95-.12-1.42-.2-.07-.01-.15-.02-.22-.03-7.14-1.4-13.35-7.56-15.16-15.25-.01-.05-.02-.11-.03-.16-.12-.54-.23-1.07-.3-1.62-.03-.19-.03-.38-.06-.58-.05-.42-.1-.83-.12-1.26-.01-.29,0-.58,0-.87,0-.33-.01-.66,0-1,.02-.37.07-.74.11-1.11.03-.26.04-.52.08-.79.06-.42.16-.85.25-1.27.05-.22.08-.43.13-.65.12-.48.27-.95.43-1.43.05-.16.09-.33.15-.5.18-.51.4-1.02.62-1.53.06-.14.1-.27.17-.41.24-.53.53-1.05.82-1.58.06-.12.12-.23.18-.35.32-.54.67-1.08,1.05-1.61.06-.09.11-.18.18-.28h0s.02-.03.03-.04c.02-.03.04-.06.06-.09h0s0,0,0,0h.01c15.96-19.07,42.37,5.38,27.93,25.64Z"/>
    <path d="M277.78,293.55c1.06-1.55,6.42-4.65,8.64-7.06,24.73-26.93,10.32-74.07-24.92-79.33-7.54-47.11-69.1-48.63-75.09-95.57-6.06-47.32,50.43-73.27,79.96-39.97,9.47,10.67,11.6,23.87,18.75,35.27,7.58,12.04,29.22,26.77,42.53,17.86,10.71-7.17-7.26-22.15-10.78-30.6-16.53-39.54-16.75-66.66-59.99-85.72-109.49-48.25-186.48,123.73-74.27,183.92,14.09,7.56,31.51,10.86,41.91,24.61l.44,1.56c-28.68,28.18-9.23,82.72,30.14,82.07,3.86.18,10.03-.13,16.65-3.33,2.36-1.14,4.36-2.44,6.01-3.71ZM241.2,240.77h0s.03-.03.04-.05c.02-.03.04-.06.06-.09h.01c1.54-1.78,3.17-3.18,4.86-4.25.02-.01.04-.02.06-.04.54-.34,1.09-.64,1.64-.91.05-.02.1-.04.14-.06.52-.25,1.05-.48,1.58-.67.1-.03.19-.06.29-.09.48-.16.96-.32,1.45-.43.15-.04.31-.05.46-.09.43-.09.85-.18,1.28-.23.24-.03.48-.03.72-.05.34-.03.68-.07,1.02-.07.34,0,.68.02,1.02.03.24.01.47,0,.71.03.49.04.98.12,1.47.2.08.01.15.02.23.03,7.35,1.4,13.76,7.56,15.62,15.26.01.05.02.11.03.16.13.54.23,1.08.31,1.62.03.19.04.38.06.58.05.42.1.83.12,1.26.01.29,0,.58,0,.87,0,.33.01.66,0,1-.02.37-.07.74-.11,1.11-.03.26-.04.52-.08.79-.06.42-.16.85-.25,1.27-.05.22-.08.43-.13.65-.12.48-.28.95-.44,1.43-.06.16-.09.33-.15.49-.18.51-.41,1.02-.64,1.53-.06.14-.11.27-.17.41-.25.53-.55,1.05-.85,1.58-.07.12-.12.23-.19.35-.33.54-.69,1.08-1.08,1.61-.07.09-.12.18-.18.28h0s-.02.03-.03.04c-.02.03-.04.06-.06.09h0s0,0,0,0h-.01c-16.44,19.06-43.66-5.4-28.79-25.65Z"/>
  </g>
</svg>